<?xml version="1.0" standalone="no"?>
<!DOCTYPE svg PUBLIC "-//W3C//DTD SVG 20010904//EN"
 "http://www.w3.org/TR/2001/REC-SVG-20010904/DTD/svg10.dtd">
<svg version="1.0" xmlns="http://www.w3.org/2000/svg"
 width="250.000000pt" height="250.000000pt" viewBox="0 0 250.000000 250.000000"
 preserveAspectRatio="xMidYMid meet">

<g transform="translate(0.000000,250.000000) scale(0.100000,-0.100000)"
fill="#000000" stroke="none">
<path d="M200 1607 l0 -672 183 -183 182 -182 321 0 321 0 5 -171 c3 -93 7
-171 9 -172 2 -1 160 -1 352 1 l347 3 0 267 0 267 211 -3 211 -4 -4 556 c-2
305 -6 557 -9 560 -2 3 -280 6 -617 7 l-612 3 -142 198 -143 198 -307 0 -308
0 0 -673z m560 368 l0 -195 198 -2 197 -3 0 -225 0 -225 -197 -3 -198 -2 0
-50 0 -50 198 -2 197 -3 0 -225 0 -225 -309 -3 -309 -2 -113 112 -114 112 0
593 0 593 225 0 225 0 0 -195z m1331 -209 c2 -2 3 -95 1 -205 l-3 -201 -184 0
-185 0 0 -50 0 -50 180 0 180 0 0 -165 0 -165 -180 0 -180 0 0 -280 0 -279
-235 -3 c-152 -2 -235 1 -235 7 0 6 0 267 0 581 l1 571 122 121 122 122 296 0
c163 0 298 -2 300 -4z"/>
</g>
</svg>
